<svg xmlns="http://www.w3.org/2000/svg" width="301.239" height="267.764" viewBox="0 0 301.239 267.764">
  <path id="Icon_awesome-hand-holding-heart" data-name="Icon awesome-hand-holding-heart" d="M143.97,131.01a9.11,9.11,0,0,0,13.335,0l56.95-59.721c16.525-17.362,15.584-46.125-2.929-62.127C195.219-4.8,171.215-2.291,156.468,13.188l-5.857,6.119-5.8-6.066C130.059-2.291,106.055-4.8,89.948,9.161c-18.46,16-19.454,44.765-2.929,62.127Zm151.657,40.581c-6.171-5.6-15.793-5.23-22.278,0l-48.321,38.646a33.294,33.294,0,0,1-20.918,7.321H142.244a8.367,8.367,0,0,1,0-16.735h40.947c8.315,0,16.055-5.7,17.414-13.911a16.754,16.754,0,0,0-16.525-19.559H100.407a61.549,61.549,0,0,0-38.751,13.754L37.339,200.824H8.367A8.392,8.392,0,0,0,0,209.192v50.2a8.392,8.392,0,0,0,8.367,8.367h186.59a33.51,33.51,0,0,0,20.918-7.321l79.071-63.278A16.726,16.726,0,0,0,295.627,171.591Z" transform="translate(0 0.001)"/>
</svg>
