<svg xmlns="http://www.w3.org/2000/svg" width="315.255" height="252.182" viewBox="0 0 315.255 252.182">
  <path id="Icon_awesome-hands-helping" data-name="Icon awesome-hands-helping" d="M240.391,94.567H165.518v27.585a35.466,35.466,0,0,1-70.932,0v-59.9L62.617,81.464A31.458,31.458,0,0,0,47.3,108.458v23.3L7.891,154.515a15.725,15.725,0,0,0-5.763,21.526l39.407,68.272a15.768,15.768,0,0,0,21.526,5.763l50.933-29.407h67.287a31.555,31.555,0,0,0,31.525-31.525h7.881a15.746,15.746,0,0,0,15.763-15.763V141.855h3.941a11.794,11.794,0,0,0,11.822-11.822V106.389A11.794,11.794,0,0,0,240.391,94.567Zm72.755-18.423L273.739,7.872a15.768,15.768,0,0,0-21.526-5.763L201.28,31.516H150.938a31.762,31.762,0,0,0-16.7,4.778l-16.5,10.3a15.656,15.656,0,0,0-7.389,13.349v62.213a19.7,19.7,0,0,0,39.407,0V78.8h90.636a27.6,27.6,0,0,1,27.585,27.585v14.039L307.383,97.67a15.779,15.779,0,0,0,5.763-21.526Z" transform="translate(0.002 -0.002)"/>
</svg>
