<svg xmlns="http://www.w3.org/2000/svg" width="314.196" height="314.196" viewBox="0 0 314.196 314.196">
  <path id="Icon_material-library-books" data-name="Icon material-library-books" d="M34.42,65.839H3V285.777A31.512,31.512,0,0,0,34.42,317.2H254.357v-31.42H34.42ZM285.777,3H97.259a31.512,31.512,0,0,0-31.42,31.42V222.937a31.512,31.512,0,0,0,31.42,31.42H285.777a31.512,31.512,0,0,0,31.42-31.42V34.42A31.512,31.512,0,0,0,285.777,3Zm-15.71,141.388h-157.1v-31.42h157.1Zm-62.839,62.839H112.969v-31.42h94.259ZM270.067,81.549h-157.1V50.129h157.1Z" transform="translate(-3 -3)"/>
</svg>
