<svg xmlns="http://www.w3.org/2000/svg" width="289.34" height="217.005" viewBox="0 0 289.34 217.005">
  <path id="Icon_metro-profile" data-name="Icon metro-profile" d="M273.171,38.713H252.938V8.353L211.17,7.712l.217,31H85.875l.858-31-40.9.641v31l-20.667-.641A20.675,20.675,0,0,0,4.5,59.38V204.05a20.675,20.675,0,0,0,20.667,20.667H273.171a20.675,20.675,0,0,0,20.667-20.667V59.38A20.675,20.675,0,0,0,273.171,38.713ZM221.5,18.046H242.17V59.38H221.5ZM87.167,88.438c12.483,0,22.61,13.3,22.61,29.709s-10.127,29.709-22.61,29.709-22.61-13.3-22.61-29.709,10.127-29.709,22.61-29.709Zm-31-70.392H76.834V59.38H56.166Zm-13.775,164.8s2.449-19.654,8.019-23.364,21.6-6.179,21.6-6.179S82.4,164.41,86.826,164.41,101.634,153.3,101.634,153.3s16.038,2.459,21.607,6.179c6.541,4.361,8.174,23.364,8.174,23.364H42.392Zm210.112-9.8h-93V162.715h93Zm0-20.667h-93V142.048h93Zm0-20.667h-93V121.381h93Zm0-20.667h-93V100.714h93Z" transform="translate(-4.499 -7.712)"/>
</svg>
